<svg width="32" height="33" viewBox="0 0 32 33" fill="none" xmlns="http://www.w3.org/2000/svg">
<g id="icons">
<path id="Vector 119" d="M7.00415 31.633C11.0749 29.4749 12.9775 32.6883 16.0061 31.8604C19.0347 31.0325 20.5629 30.1666 23.5356 31.1461" stroke="#AFB6C4"/>
<path id="Vector" d="M27.3575 9.14356C26.2882 8.3515 24.8859 8.01793 23.6434 8.20261C22.9133 8.30979 22.2281 8.55989 21.6263 8.9232C21.5878 8.91136 21.5494 8.90534 21.511 8.89931C22.2219 8.39913 22.9133 7.98224 23.605 7.69041C24.495 7.30322 25.366 7.16031 26.2498 7.22595C27.1335 7.29741 28.0557 7.57741 29.0033 7.97642C29.9574 8.36942 30.9115 8.89349 32 9.37C31.5198 8.26825 30.777 7.32129 29.8421 6.5529C28.9072 5.79658 27.7227 5.21872 26.4034 5.12359C25.0779 5.01641 23.7202 5.46902 22.7469 6.27894C22.4332 6.53506 22.1578 6.82692 21.9145 7.13061C21.9657 6.9341 22.0171 6.7376 22.0425 6.53509C22.2154 5.26658 21.8953 3.83726 21.1204 2.74131C20.3519 1.63955 19.2568 0.90094 18.1428 0.48404C17.0159 0.0611269 15.8376 -0.0936097 14.6657 0.0553095C15.6263 0.758029 16.5547 1.32382 17.3808 1.95513C18.2069 2.56851 18.9176 3.2297 19.4364 3.9681C19.9615 4.70655 20.288 5.5403 20.4289 6.52304C20.5185 7.10676 20.5377 7.73195 20.5249 8.38713C20.4865 8.35742 20.4481 8.32751 20.4032 8.30965C20.3967 8.30965 20.3967 8.30965 20.3905 8.30363C20.2496 7.61877 19.9742 6.94578 19.5773 6.33819C18.8921 5.26616 17.7138 4.42056 16.4267 4.12868C15.1396 3.81897 13.8398 4.01547 12.7318 4.45625C11.6176 4.90284 10.6378 5.58188 9.85661 6.49316C11.0285 6.36811 12.0978 6.15956 13.1225 6.06442C14.1407 5.9751 15.1012 5.98113 15.9656 6.18345C16.8301 6.38597 17.6176 6.78497 18.3604 7.42229C18.7191 7.73199 19.0648 8.08348 19.3978 8.46464C19.3786 8.48251 19.3594 8.50639 19.3337 8.53008C18.9431 8.4526 18.5205 8.47046 18.1427 8.60755C17.5727 8.80405 17.118 9.19126 16.7852 9.63204C16.4587 10.0728 16.241 10.573 16.1512 11.115C16.5737 10.7814 16.9389 10.448 17.3166 10.1619C17.688 9.87612 18.0786 9.68543 18.4435 9.51282C18.8726 9.31029 20.2045 9.26273 20.4093 9.38777C20.4029 9.41166 19.1158 10.7756 18.9172 11.0374C17.9888 12.2703 17.1946 13.6163 16.4967 14.998C15.805 16.3916 15.1839 17.8211 14.6524 19.2861C14.4922 19.7269 14.3451 20.2928 14.1977 20.9062C14.0697 20.5667 13.9288 20.2153 13.7814 19.8638L13.7878 19.8578C13.7878 19.8578 13.7814 19.8578 13.7814 19.8518C13.1603 18.3986 12.3406 16.8442 11.2967 15.5518H11.2903C10.5923 14.6883 9.79191 13.9439 8.88896 13.4316H8.90169C10.5921 12.6871 15.5871 13.8188 15.6957 13.8246C15.7533 13.8306 15.7982 13.7949 15.8174 13.7471C15.8366 13.6935 15.8301 13.64 15.7917 13.5982C15.6892 13.497 13.3201 11.0611 10.797 11.0611H10.733C10.5217 11.0671 10.3104 11.079 10.1054 11.0969C10.1054 11.0969 11.053 10.1023 14.1332 9.54252C14.1844 9.53068 14.21 9.47106 14.21 9.41747C14.21 9.36388 14.1716 9.31631 14.1205 9.29845C14.0693 9.28058 12.7885 8.82194 11.3286 8.82194C10.4832 8.82194 9.74689 8.9767 9.15148 9.2864C7.49298 10.1499 6.98064 11.1565 6.85268 11.5019C6.36604 11.2697 5.56558 11.0254 4.37453 11.0672C2.1269 11.1446 0.116204 13.4316 0.0328441 13.527C0.000907253 13.5687 -0.0120465 13.6281 0.0136372 13.6759C0.039321 13.7235 0.0839897 13.7534 0.14161 13.7534C0.237645 13.7474 4.15026 12.6218 5.64216 13.1043C5.64216 13.1043 4.74567 13.807 4.30394 14.3967C2.74795 16.4575 3.03605 19.8579 3.05526 20.0068C3.06174 20.0604 3.10015 20.1079 3.15129 20.12C3.20244 20.1378 3.26006 20.12 3.29222 20.0724C3.36257 19.9831 5.77037 15.427 8.19089 13.7535C8.19089 13.7535 12.9808 16.2787 13.1664 29.7802H15.7727C15.2733 18.625 19.0129 12.8543 19.6596 11.526C19.7556 11.3295 20.3767 10.2456 20.9018 9.53082C20.9018 9.53082 21.4588 9.78693 21.952 10.5732C21.952 10.5732 22.3298 11.264 22.3875 11.6452C22.4578 12.0503 22.4324 12.4908 22.3618 12.9673C22.2977 13.4318 22.1762 13.9203 22.0864 14.4622C22.509 14.1228 22.8357 13.6939 23.0662 13.1877C23.2904 12.6815 23.4119 12.0859 23.3096 11.4844C23.2201 10.8768 22.8679 10.3112 22.4131 9.96574C22.3812 9.94186 22.349 9.92399 22.3171 9.90031C22.3236 9.85856 22.3171 9.81099 22.3171 9.76924C22.791 9.76924 23.2455 9.79895 23.6745 9.8704C24.6351 10.0133 25.4482 10.3469 26.1784 10.877C26.902 11.4011 27.5422 12.1277 28.1506 12.9735C28.7655 13.8133 29.3225 14.7604 30.0142 15.7428C30.1613 14.5397 30.0014 13.3487 29.5979 12.1991C29.1568 11.0434 28.4396 9.91778 27.3573 9.14359L27.3575 9.14356Z" fill="#AFB6C4"/>
</g>
</svg>
