<svg width="20" height="20" viewBox="0 0 20 20" fill="none" xmlns="http://www.w3.org/2000/svg">
<g id="Vector">
<path d="M12.4299 6.90347C11.142 6.90347 10.0583 7.79145 9.73857 8.98222L0.71759 8.98238C0.527847 8.98158 0.345595 9.05636 0.211191 9.18998C0.0766148 9.32375 0.000879399 9.50553 0.000397736 9.69527C7.88179e-05 9.88533 0.0754964 10.0679 0.210231 10.2022C0.344807 10.3366 0.527374 10.4117 0.71761 10.411H9.74022C10.0609 11.6015 11.1434 12.4912 12.4301 12.4912C13.7168 12.4912 14.7994 11.6015 15.12 10.411H19.2872C19.4768 10.4106 19.6582 10.335 19.792 10.2007C19.9256 10.0665 20.0006 9.8847 20.0002 9.69527C19.9998 9.50632 19.9247 9.32519 19.791 9.19156C19.6573 9.05795 19.4763 8.98269 19.2872 8.98237H15.1212C14.8015 7.79143 13.7178 6.90347 12.4299 6.90347Z" fill="#9B9997"/>
<path d="M6.87831 14.1862C5.59203 14.1862 4.50812 15.0751 4.18696 16.2649L0.717192 16.2651C0.526809 16.2643 0.343924 16.3396 0.209201 16.4743C0.074625 16.6089 -0.000632766 16.7918 4.00825e-06 16.9821C0.000801242 17.1715 0.0766985 17.353 0.211274 17.4864C0.345691 17.6199 0.52778 17.6944 0.717225 17.6936H4.18556C4.50462 18.8864 5.58982 19.778 6.87818 19.778C8.16667 19.778 9.25045 18.8864 9.56954 17.6936H19.2869C19.4757 17.6932 19.6566 17.6183 19.7901 17.4848C19.9237 17.3515 19.9991 17.1709 19.9999 16.9821C20.0006 16.7924 19.9259 16.6103 19.7922 16.4757C19.6584 16.3411 19.4766 16.2654 19.2869 16.2651H9.5683C9.24717 15.0753 8.16456 14.1862 6.87831 14.1862Z" fill="#AFB6C4"/>
<path d="M4.79817 0C3.53136 0 2.46607 0.872504 2.14588 2.04254H0.717222C0.526839 2.04174 0.343954 2.11716 0.209231 2.25173C0.0746555 2.38647 -0.000602249 2.56919 3.45258e-05 2.75972C0.00083176 2.94915 0.076729 3.13044 0.211305 3.26392C0.345721 3.39738 0.527811 3.472 0.717255 3.4712H2.14306C2.461 4.64442 3.52882 5.52076 4.79804 5.52076C6.05449 5.52076 7.11341 4.66148 7.44331 3.50614L19.2869 3.47122C19.4765 3.4709 19.6579 3.39517 19.7917 3.26107C19.9253 3.12681 20.0003 2.94488 20 2.75545C19.9995 2.5665 19.9244 2.38537 19.7908 2.25174C19.657 2.11813 19.476 2.04286 19.2869 2.04255L7.46289 2.07747C7.15515 0.889431 6.07789 0 4.79817 0Z" fill="#AFB6C4"/>
</g>
</svg>
