<svg width="32" height="32" viewBox="0 0 32 32" fill="none" xmlns="http://www.w3.org/2000/svg">
<path d="M7.99994 30.6662C7.99994 31.3995 7.3995 31.9999 6.66681 31.9999H1.3337C0.600424 31.9999 0 31.3995 0 30.6662V25.3331C0 24.5999 0.600438 24 1.3337 24H6.66681C7.39952 24 7.99994 24.5999 7.99994 25.3331V30.6662Z" fill="#AFB6C4"/>
<path d="M18.6662 30.6662C18.6662 31.3995 18.0658 31.9999 17.3331 31.9999H12C11.2667 31.9999 10.6663 31.3995 10.6663 30.6662V25.3331C10.6663 24.5999 11.2667 24 12 24H17.3331C18.0658 24 18.6662 24.5999 18.6662 25.3331V30.6662Z" fill="#AFB6C4"/>
<path d="M29.3327 30.6662C29.3327 31.3995 28.7323 31.9999 27.9996 31.9999H22.6662C21.9329 31.9999 21.3325 31.3995 21.3325 30.6662L21.3328 25.3331C21.3328 24.5999 21.9332 24 22.6665 24H27.9996C28.7323 24 29.3327 24.5999 29.3327 25.3331L29.3327 30.6662Z" fill="#AFB6C4"/>
<path d="M7.99994 19.9997C7.99994 20.733 7.3995 21.3329 6.66681 21.3329H1.3337C0.600424 21.3329 0 20.733 0 19.9997V14.6666C0 13.9333 0.600438 13.3335 1.3337 13.3335H6.66681C7.39952 13.3335 7.99994 13.9334 7.99994 14.6666V19.9997Z" fill="#AFB6C4"/>
<path d="M18.6662 19.9997C18.6662 20.733 18.0658 21.3329 17.3331 21.3329H12C11.2667 21.3329 10.6663 20.733 10.6663 19.9997V14.6666C10.6663 13.9333 11.2667 13.3335 12 13.3335H17.3331C18.0658 13.3335 18.6662 13.9334 18.6662 14.6666V19.9997Z" fill="#AFB6C4"/>
<path d="M24.4542 21.1373L24.4541 21.1368L22.4127 16.2105C22.4127 16.2104 22.4127 16.2103 22.4126 16.2102C22.2384 15.788 22.4418 15.2965 22.8636 15.1213C22.8636 15.1213 22.8636 15.1213 22.8636 15.1213C22.8637 15.1213 22.8637 15.1213 22.8638 15.1213L27.7913 13.0792L27.7917 13.079C28.2124 12.9042 28.7036 13.1074 28.8786 13.5302L28.8787 13.5302L30.92 18.458C30.9201 18.4581 30.9201 18.4583 30.9202 18.4584C31.0943 18.8806 30.8909 19.3714 30.4693 19.5459L30.4692 19.546L25.5435 21.5875C25.5434 21.5876 25.5432 21.5877 25.543 21.5877C25.1187 21.7623 24.6281 21.558 24.4542 21.1373Z" stroke="#AFB6C4"/>
<path d="M7.99994 9.33351C7.99994 10.0668 7.3995 10.6666 6.66681 10.6666H1.3337C0.600424 10.6666 0 10.0668 0 9.33351V4.00013C0 3.26684 0.600438 2.66699 1.3337 2.66699H6.66681C7.39952 2.66699 7.99994 3.26687 7.99994 4.00013V9.33351Z" fill="#AFB6C4"/>
<path d="M17.3414 10.6616C17.0613 11.3385 16.2761 11.6641 15.5995 11.3832L10.6721 9.34161C9.99493 9.06147 9.66933 8.27633 9.95054 7.59969L11.9909 2.6728C12.2722 1.9959 13.0562 1.67002 13.7329 1.95123L18.6611 3.99279C19.338 4.27292 19.6622 5.05807 19.3824 5.73471L17.3414 10.6616Z" fill="#AFB6C4"/>
<path d="M31.2576 4.51435L31.2576 4.51441C31.5808 4.83757 31.5808 5.36976 31.2577 5.69284L31.2576 5.69291L27.4867 9.46496L27.4866 9.465C27.1638 9.78802 26.6315 9.78802 26.3086 9.465L26.3085 9.46494L22.5374 5.69296C22.5374 5.69294 22.5374 5.69292 22.5374 5.6929C22.2144 5.36972 22.2145 4.83744 22.5374 4.51436C22.5374 4.51435 22.5374 4.51434 22.5374 4.51433L26.3085 0.742152L26.3086 0.742102C26.6314 0.419306 27.1638 0.419297 27.4867 0.742089C27.4867 0.742111 27.4867 0.742133 27.4867 0.742155L31.2576 4.51435Z" stroke="#AFB6C4"/>
</svg>
