<svg width="11" height="16" viewBox="0 0 11 16" fill="none" xmlns="http://www.w3.org/2000/svg">
<path id="Vector" opacity="0.2" d="M5.33333 0C2.40622 0 0 2.28249 0 5.53846C0 6.70032 0.273725 7.5086 0.782124 8.40391L4.97443 15.7885V15.7884C5.04669 15.919 5.18419 16 5.33343 16C5.48267 16 5.62017 15.919 5.69243 15.7884L9.88474 8.40377C10.3931 7.5086 10.6669 6.70033 10.6669 5.53846C10.6669 2.28253 8.2606 3.35358e-06 5.33353 3.35358e-06L5.33333 0ZM5.33333 2.87172C6.69278 2.87172 7.79483 3.97377 7.79483 5.33322C7.79483 6.69267 6.69278 7.79472 5.33333 7.79472C3.97388 7.79472 2.87183 6.69267 2.87183 5.33322C2.87183 3.97377 3.97388 2.87172 5.33333 2.87172Z" fill="#3A3A3A"/>
</svg>
