<svg width="10" height="10" viewBox="0 0 10 10" fill="none" xmlns="http://www.w3.org/2000/svg">
<g id="Vector" opacity="0.5">
<path id="Vector_2" d="M0.228129 0.228129C0.532301 -0.076043 1.0253 -0.076043 1.32931 0.228129L5 3.89882L8.67069 0.228129C8.97486 -0.076043 9.46786 -0.076043 9.77187 0.228129C10.076 0.532301 10.076 1.0253 9.77187 1.32931L6.10118 5L9.77187 8.67069C10.076 8.97486 10.076 9.46786 9.77187 9.77187C9.4677 10.076 8.9747 10.0759 8.67069 9.77187L5 6.10118L1.32931 9.77187C1.02514 10.0759 0.532139 10.0759 0.228129 9.77187C-0.076043 9.4677 -0.076043 8.9747 0.228129 8.67069L3.89882 5L0.228129 1.32931C-0.076043 1.02514 -0.076043 0.532139 0.228129 0.228129Z" fill="#9D9D9D"/>
</g>
</svg>
